<svg width="82" height="12" viewBox="0 0 82 12" fill="none" xmlns="http://www.w3.org/2000/svg">
<path d="M4.578 11.098C3.39267 11.098 2.41267 10.8227 1.638 10.272C0.872667 9.712 0.457333 8.89533 0.392 7.822H3.696C3.74267 8.39133 3.99467 8.676 4.452 8.676C4.62 8.676 4.76 8.63867 4.872 8.564C4.99333 8.48 5.054 8.354 5.054 8.186C5.054 7.95267 4.928 7.766 4.676 7.626C4.424 7.47667 4.032 7.30867 3.5 7.122C2.86533 6.898 2.338 6.67867 1.918 6.464C1.50733 6.24933 1.15267 5.93667 0.854 5.526C0.555333 5.11533 0.410667 4.588 0.42 3.944C0.42 3.3 0.583333 2.754 0.91 2.306C1.246 1.84867 1.69867 1.50333 2.268 1.27C2.84667 1.03667 3.49533 0.92 4.214 0.92C5.42733 0.92 6.38867 1.2 7.098 1.76C7.81667 2.32 8.19467 3.10867 8.232 4.126H4.886C4.87667 3.846 4.80667 3.64533 4.676 3.524C4.54533 3.40267 4.38667 3.342 4.2 3.342C4.06933 3.342 3.962 3.38867 3.878 3.482C3.794 3.566 3.752 3.68733 3.752 3.846C3.752 4.07 3.87333 4.25667 4.116 4.406C4.368 4.546 4.76467 4.71867 5.306 4.924C5.93133 5.15733 6.44467 5.38133 6.846 5.596C7.25667 5.81067 7.61133 6.10933 7.91 6.492C8.20867 6.87467 8.358 7.35533 8.358 7.934C8.358 8.54067 8.20867 9.08667 7.91 9.572C7.61133 10.048 7.17733 10.4213 6.608 10.692C6.03867 10.9627 5.362 11.098 4.578 11.098ZM15.022 11L12.138 6.702V11H9.03V1.088H12.138V5.26L14.98 1.088H18.494L15.078 5.834L18.718 11H15.022ZM22.2864 1.088V11H19.1784V1.088H22.2864ZM26.3781 8.648H29.3741V11H23.2701V1.088H26.3781V8.648ZM33.0401 8.648H36.0361V11H29.9321V1.088H33.0401V8.648Z" fill="#CFDAFE"/>
<path d="M40.4721 11.098C39.2868 11.098 38.3068 10.8227 37.5321 10.272C36.7668 9.712 36.3515 8.89533 36.2861 7.822H39.5901C39.6368 8.39133 39.8888 8.676 40.3461 8.676C40.5141 8.676 40.6541 8.63867 40.7661 8.564C40.8875 8.48 40.9481 8.354 40.9481 8.186C40.9481 7.95267 40.8221 7.766 40.5701 7.626C40.3181 7.47667 39.9261 7.30867 39.3941 7.122C38.7595 6.898 38.2321 6.67867 37.8121 6.464C37.4015 6.24933 37.0468 5.93667 36.7481 5.526C36.4495 5.11533 36.3048 4.588 36.3141 3.944C36.3141 3.3 36.4775 2.754 36.8041 2.306C37.1401 1.84867 37.5928 1.50333 38.1621 1.27C38.7408 1.03667 39.3895 0.92 40.1081 0.92C41.3215 0.92 42.2828 1.2 42.9921 1.76C43.7108 2.32 44.0888 3.10867 44.1261 4.126H40.7801C40.7708 3.846 40.7008 3.64533 40.5701 3.524C40.4395 3.40267 40.2808 3.342 40.0941 3.342C39.9635 3.342 39.8561 3.38867 39.7721 3.482C39.6881 3.566 39.6461 3.68733 39.6461 3.846C39.6461 4.07 39.7675 4.25667 40.0101 4.406C40.2621 4.546 40.6588 4.71867 41.2001 4.924C41.8255 5.15733 42.3388 5.38133 42.7401 5.596C43.1508 5.81067 43.5055 6.10933 43.8041 6.492C44.1028 6.87467 44.2521 7.35533 44.2521 7.934C44.2521 8.54067 44.1028 9.08667 43.8041 9.572C43.5055 10.048 43.0715 10.4213 42.5021 10.692C41.9328 10.9627 41.2561 11.098 40.4721 11.098ZM54.0941 1.088V11H50.9861V7.136H48.0321V11H44.9241V1.088H48.0321V4.658H50.9861V1.088H54.0941ZM59.9025 11.098C58.9692 11.098 58.1105 10.8787 57.3265 10.44C56.5518 10.0013 55.9358 9.39467 55.4785 8.62C55.0212 7.84533 54.7925 6.97267 54.7925 6.002C54.7925 5.03133 55.0212 4.15867 55.4785 3.384C55.9358 2.60933 56.5518 2.00733 57.3265 1.578C58.1105 1.13933 58.9692 0.92 59.9025 0.92C60.8358 0.92 61.6898 1.13933 62.4645 1.578C63.2392 2.00733 63.8505 2.60933 64.2985 3.384C64.7558 4.15867 64.9845 5.03133 64.9845 6.002C64.9845 6.97267 64.7558 7.84533 64.2985 8.62C63.8505 9.39467 63.2345 10.0013 62.4505 10.44C61.6758 10.8787 60.8265 11.098 59.9025 11.098ZM59.9025 8.2C60.5185 8.2 60.9945 8.004 61.3305 7.612C61.6665 7.21067 61.8345 6.674 61.8345 6.002C61.8345 5.32067 61.6665 4.784 61.3305 4.392C60.9945 3.99067 60.5185 3.79 59.9025 3.79C59.2772 3.79 58.7965 3.99067 58.4605 4.392C58.1245 4.784 57.9565 5.32067 57.9565 6.002C57.9565 6.674 58.1245 7.21067 58.4605 7.612C58.7965 8.004 59.2772 8.2 59.9025 8.2ZM70.6697 11L68.8077 7.444H68.7937V11H65.6857V1.088H70.3057C71.1084 1.088 71.7944 1.23267 72.3637 1.522C72.933 1.802 73.3577 2.18933 73.6377 2.684C73.927 3.16933 74.0717 3.72 74.0717 4.336C74.0717 4.99867 73.885 5.58667 73.5117 6.1C73.1477 6.61333 72.6204 6.982 71.9297 7.206L74.0857 11H70.6697ZM68.7937 5.372H70.0257C70.3244 5.372 70.5484 5.30667 70.6977 5.176C70.847 5.036 70.9217 4.82133 70.9217 4.532C70.9217 4.27067 70.8424 4.06533 70.6837 3.916C70.5344 3.76667 70.315 3.692 70.0257 3.692H68.7937V5.372ZM77.7526 3.566V4.784H80.8326V7.122H77.7526V8.522H81.2526V11H74.6446V1.088H81.2526V3.566H77.7526Z" fill="#FFB72A"/>
</svg>
